<?xml version="1.0" encoding="UTF-8" standalone="no"?>
<svg
   xmlns:dc="http://purl.org/dc/elements/1.1/"
   xmlns:cc="http://creativecommons.org/ns#"
   xmlns:rdf="http://www.w3.org/1999/02/22-rdf-syntax-ns#"
   xmlns:svg="http://www.w3.org/2000/svg"
   xmlns="http://www.w3.org/2000/svg"
   viewBox="0 0 1440 1440"
   height="1440"
   width="1440"
   xml:space="preserve"
   id="svg2"
   version="1.1"><metadata
     id="metadata8"><rdf:RDF><cc:Work
         rdf:about=""><dc:format>image/svg+xml</dc:format><dc:type
           rdf:resource="http://purl.org/dc/dcmitype/StillImage" /></cc:Work></rdf:RDF></metadata><defs
     id="defs6"><clipPath
       id="clipPath18"
       clipPathUnits="userSpaceOnUse"><path
         id="path16"
         d="M 0,1080 H 1080 V 0 H 0 Z" /></clipPath></defs><g
     transform="matrix(1.3333333,0,0,-1.3333333,0,1440)"
     id="g10"><g
       id="g12"><g
         clip-path="url(#clipPath18)"
         id="g14"><g
           transform="translate(573.5498,475.9199)"
           id="g20"><path
             id="path22"
             style="fill:#f1947b;fill-opacity:1;fill-rule:nonzero;stroke:none"
             d="m 0,0 c 0,-2.2 0.33,-4.229 0.67,-6.08 2.681,-10.31 11.55,-17.41 22.09,-17.41 15.57,0 24.6,12.841 24.6,31.6 0,16.39 -8.54,30.42 -24.1,30.42 C 13.22,38.53 3.84,31.26 1,20.11 0.5,18.25 0,16.05 0,14.03 Z m -14.56,21.8 c 0,10.48 -0.33,18.93 -0.669,26.7 H -2.01 l 0.67,-14.03 h 0.33 c 6.031,9.97 15.571,15.89 28.79,15.89 19.58,0 34.31,-16.73 34.31,-41.58 0,-29.41 -17.739,-43.94 -36.819,-43.94 -10.71,0 -20.081,4.73 -24.941,12.84 H 0 v -44.45 h -14.56 z" /></g><g
           transform="translate(705.6104,491.46)"
           id="g24"><path
             id="path26"
             style="fill:#f1947b;fill-opacity:1;fill-rule:nonzero;stroke:none"
             d="M 0,0 C 0.17,9.46 -3.851,24.17 -20.42,24.17 -35.32,24.17 -41.841,10.31 -43.021,0 Z m -43.181,-10.64 c 0.33,-20.11 13.051,-28.39 27.781,-28.39 10.54,0 16.9,1.86 22.429,4.22 L 9.54,-45.46 c -5.19,-2.37 -14.061,-5.07 -26.95,-5.07 -24.941,0 -39.83,16.56 -39.83,41.24 0,24.68 14.389,44.11 37.99,44.11 26.439,0 33.47,-23.49 33.47,-38.53 0,-3.04 -0.33,-5.41 -0.5,-6.93 z" /></g><g
           transform="translate(738.0801,502.2803)"
           id="g28"><path
             id="path30"
             style="fill:#f1947b;fill-opacity:1;fill-rule:nonzero;stroke:none"
             d="M 0,0 C 0,8.45 -0.17,15.38 -0.67,22.14 H 12.38 L 13.22,8.62 h 0.33 C 17.57,16.39 26.94,24 40.33,24 51.54,24 68.95,17.239 68.95,-10.82 V -59.66 H 54.22 v 47.149 c 0,13.181 -4.85,24.171 -18.75,24.171 -9.71,0 -17.24,-6.931 -19.75,-15.21 -0.67,-1.86 -1,-4.39 -1,-6.93 V -59.66 H -0.01 l 0,59.66 z" /></g><g
           transform="translate(885.54,492.1396)"
           id="g32"><path
             id="path34"
             style="fill:#f1947b;fill-opacity:1;fill-rule:nonzero;stroke:none"
             d="m 0,0 c 0,2.54 -0.17,4.73 -0.84,6.761 -2.681,8.619 -9.88,15.719 -20.59,15.719 -14.06,0 -24.1,-12 -24.1,-30.929 0,-16.051 8.03,-29.41 23.929,-29.41 9.04,0 17.241,5.75 20.421,15.21 0.84,2.54 1.17,5.41 1.17,7.939 L -0.01,0 Z M 15.229,32.28 C 14.9,26.36 14.56,19.771 14.56,9.801 v -47.49 c 0,-18.76 -3.68,-30.25 -11.55,-37.351 -7.87,-7.439 -19.25,-9.8 -29.46,-9.8 -9.71,0 -20.42,2.37 -26.95,6.761 l 3.68,11.319 c 5.36,-3.38 13.72,-6.42 23.77,-6.42 15.06,0 26.11,7.941 26.11,28.561 v 9.13 H -0.17 C -4.69,-43.1 -13.39,-49.18 -25.95,-49.18 c -20.08,0 -34.48,17.241 -34.48,39.89 0,27.721 17.909,43.431 36.49,43.431 14.06,0 21.76,-7.441 25.27,-14.201 h 0.33 l 0.67,12.34 z" /></g><g
           transform="translate(975.9199,491.46)"
           id="g36"><path
             id="path38"
             style="fill:#f1947b;fill-opacity:1;fill-rule:nonzero;stroke:none"
             d="m 0,0 c 0.17,9.46 -3.85,24.17 -20.42,24.17 -14.9,0 -21.42,-13.86 -22.6,-24.17 z m -43.18,-10.64 c 0.33,-20.11 13.05,-28.39 27.78,-28.39 10.54,0 16.91,1.86 22.43,4.22 l 2.51,-10.65 c -5.19,-2.37 -14.06,-5.07 -26.95,-5.07 -24.94,0 -39.83,16.56 -39.83,41.24 0,24.68 14.39,44.11 37.99,44.11 26.44,0 33.47,-23.49 33.47,-38.53 0,-3.04 -0.33,-5.41 -0.5,-6.93 z" /></g><g
           transform="translate(307.4199,758.6401)"
           id="g40"><path
             id="path42"
             style="fill:#f1947b;fill-opacity:1;fill-rule:nonzero;stroke:none"
             d="m 0,0 c 119.614,0 216.58,-97.907 216.58,-218.68 0,-120.774 -96.966,-218.68 -216.58,-218.68 -119.614,0 -216.58,97.906 -216.58,218.68 C -216.58,-97.907 -119.614,0 0,0" /></g><g
           transform="translate(362.27,522.29)"
           id="g44"><path
             id="path46"
             style="fill:#ffffff;fill-opacity:1;fill-rule:nonzero;stroke:none"
             d="m 0,0 h 23.95 l 20.96,-27.65 61.13,115.2 h 25.7 L 59.88,-50.69 h -23.2 z" /></g><g
           transform="translate(224.8301,587.6099)"
           id="g48"><path
             id="path50"
             style="fill:#ffffff;fill-opacity:1;fill-rule:nonzero;stroke:none"
             d="m 0,0 c 0,-4.74 0.81,-9.12 1.62,-13.13 6.46,-22.25 27.87,-37.57 53.32,-37.57 37.57,0 59.38,27.72 59.38,68.21 0,35.38 -20.6,65.66 -58.17,65.66 C 31.91,83.17 9.29,67.48 2.42,43.41 1.21,39.4 0,34.66 0,30.28 Z m -35.15,47.06 c 0,22.62 -0.81,40.85 -1.61,57.63 h 31.91 l 1.61,-30.27 h 0.81 c 14.54,21.52 37.57,34.29 69.48,34.29 47.26,0 82.81,-36.11 82.81,-89.73 0,-63.47 -42.82,-94.84 -88.86,-94.84 -25.85,0 -48.47,10.21 -60.19,27.72 H 0 v -95.93 H -35.14 V 47.06 Z" /></g><g
           transform="translate(224.8301,587.6099)"
           id="g52"><path
             id="path54"
             style="fill:#ffffff;fill-opacity:1;fill-rule:nonzero;stroke:none"
             d="m 0,0 c 0,-4.74 0.81,-9.12 1.62,-13.13 6.46,-22.25 27.87,-37.57 53.32,-37.57 37.57,0 59.38,27.72 59.38,68.21 0,35.38 -20.6,65.66 -58.17,65.66 C 31.91,83.17 9.29,67.48 2.42,43.41 1.21,39.4 0,34.66 0,30.28 Z m -35.15,47.06 c 0,22.62 -0.81,40.85 -1.61,57.63 h 31.91 l 1.61,-30.27 h 0.81 c 14.54,21.52 37.57,34.29 69.48,34.29 47.26,0 82.81,-36.11 82.81,-89.73 0,-63.47 -42.82,-94.84 -88.86,-94.84 -25.85,0 -48.47,10.21 -60.19,27.72 H 0 v -95.93 H -35.14 V 47.06 Z" /></g><g
           transform="translate(208.6001,345.3203)"
           id="g56"><path
             id="path58"
             style="fill:#f1947b;fill-opacity:1;fill-rule:nonzero;stroke:none"
             d="m 0,0 c 29.63,-15.37 63.22,-24.04 98.82,-24.04 79.89,0 149.66,43.68 187.21,108.67 l -207,93.59 z" /></g><g
           transform="translate(222.27,338.8398)"
           id="g60"><path
             id="path62"
             style="fill:#ffffff;fill-opacity:1;fill-rule:nonzero;stroke:none"
             d="m 0,0 c 26.14,-11.3 54.92,-17.56 85.15,-17.56 74.43,0 140.08,37.911 179.06,95.64 L 72.96,164.54 Z" /></g><g
           transform="translate(222.27,338.8398)"
           id="g64"><path
             id="path66"
             style="fill:#ffffff;fill-opacity:1;fill-rule:nonzero;stroke:none"
             d="m 0,0 c 26.14,-11.3 54.92,-17.56 85.15,-17.56 74.43,0 140.08,37.911 179.06,95.64 L 72.96,164.54 Z" /></g><g
           transform="translate(316.1899,406.4697)"
           id="g68"><path
             id="path70"
             style="fill:#f18887;fill-opacity:1;fill-rule:nonzero;stroke:none"
             d="M 0,0 -11.57,5.23 2.14,36.15 13.71,30.92 Z" /></g><g
           transform="translate(334.5601,398.1602)"
           id="g72"><path
             id="path74"
             style="fill:#f1947b;fill-opacity:1;fill-rule:nonzero;stroke:none"
             d="M 0,0 -11.57,5.229 2.15,36.149 13.72,30.92 Z" /></g><g
           transform="translate(407.3799,365.2402)"
           id="g76"><path
             id="path78"
             style="fill:#f1947b;fill-opacity:1;fill-rule:nonzero;stroke:none"
             d="M 0,0 -11.57,5.229 2.15,36.149 13.72,30.92 Z" /></g><g
           transform="translate(316.1899,406.4697)"
           id="g80"><path
             id="path82"
             style="fill:#f18887;fill-opacity:1;fill-rule:nonzero;stroke:none"
             d="M 0,0 -11.57,5.23 2.14,36.15 13.71,30.92 Z" /></g><g
           transform="translate(316.1899,406.4697)"
           id="g84"><path
             id="path86"
             style="fill:#f18887;fill-opacity:1;fill-rule:nonzero;stroke:none"
             d="M 0,0 -11.57,5.23 2.14,36.15 13.71,30.92 Z" /></g><g
           transform="translate(316.1899,406.4697)"
           id="g88"><path
             id="path90"
             style="fill:#f18887;fill-opacity:1;fill-rule:nonzero;stroke:none"
             d="M 0,0 -11.57,5.23 2.14,36.15 13.71,30.92 Z" /></g><g
           transform="translate(316.1899,406.4697)"
           id="g92"><path
             id="path94"
             style="fill:#f1947b;fill-opacity:1;fill-rule:nonzero;stroke:none"
             d="M 0,0 -11.57,5.23 2.14,36.15 13.71,30.92 Z" /></g><g
           transform="translate(302.5898,335.2695)"
           id="g96"><path
             id="path98"
             style="fill:#f18887;fill-opacity:1;fill-rule:nonzero;stroke:none"
             d="M 0,0 -11.57,5.23 2.14,36.15 13.71,30.921 Z" /></g><g
           transform="translate(320.96,326.96)"
           id="g100"><path
             id="path102"
             style="fill:#f1947b;fill-opacity:1;fill-rule:nonzero;stroke:none"
             d="M 0,0 -11.57,5.23 2.14,36.15 13.71,30.92 Z" /></g><g
           transform="translate(302.5898,335.2695)"
           id="g104"><path
             id="path106"
             style="fill:#f18887;fill-opacity:1;fill-rule:nonzero;stroke:none"
             d="M 0,0 -11.57,5.23 2.14,36.15 13.71,30.921 Z" /></g><g
           transform="translate(302.5898,335.2695)"
           id="g108"><path
             id="path110"
             style="fill:#f18887;fill-opacity:1;fill-rule:nonzero;stroke:none"
             d="M 0,0 -11.57,5.23 2.14,36.15 13.71,30.921 Z" /></g><g
           transform="translate(302.5898,335.2695)"
           id="g112"><path
             id="path114"
             style="fill:#f18887;fill-opacity:1;fill-rule:nonzero;stroke:none"
             d="M 0,0 -11.57,5.23 2.14,36.15 13.71,30.921 Z" /></g><g
           transform="translate(302.5898,335.2695)"
           id="g116"><path
             id="path118"
             style="fill:#f1947b;fill-opacity:1;fill-rule:nonzero;stroke:none"
             d="M 0,0 -11.57,5.23 2.14,36.15 13.71,30.921 Z" /></g><g
           transform="translate(377.5498,338.5)"
           id="g120"><path
             id="path122"
             style="fill:#f18887;fill-opacity:1;fill-rule:nonzero;stroke:none"
             d="m 0,0 -2.86,-6.45 c 3.23,1.06 6.42,2.2 9.58,3.41 z" /></g><g
           transform="translate(447.1099,372.8496)"
           id="g124"><path
             id="path126"
             style="fill:#f1947b;fill-opacity:1;fill-rule:nonzero;stroke:none"
             d="m 0,0 -151.25,68.381 -4.8,-10.82 145.7,-65.871 C -6.81,-5.649 -3.37,-2.869 0,0" /></g><g
           transform="translate(369.0498,330.2695)"
           id="g128"><path
             id="path130"
             style="fill:#f1947b;fill-opacity:1;fill-rule:nonzero;stroke:none"
             d="m 0,0 -101.58,45.931 -4.8,-10.821 87.93,-39.75 C -12.2,-3.369 -6.05,-1.81 0,0" /></g><g
           transform="translate(380.7998,627.29)"
           id="g132"><path
             id="path134"
             style="fill:none;stroke:#f1947b;stroke-width:0.588;stroke-linecap:butt;stroke-linejoin:miter;stroke-miterlimit:10;stroke-dasharray:none;stroke-opacity:1"
             d="m 0,0 -0.51,-1.24 c 0.22,0.4 0.42,0.81 0.59,1.23 C 0.05,0 0.03,0 0,0 Z" /></g></g></g></g></svg>